<?xml version="1.0"?>
<svg xmlns="http://www.w3.org/2000/svg" xmlns:xlink="http://www.w3.org/1999/xlink" xmlns:svgjs="http://svgjs.com/svgjs" version="1.1" width="512" height="512" x="0" y="0" viewBox="0 0 127.744 127.744" style="enable-background:new 0 0 512 512" xml:space="preserve" class=""><g>
<g xmlns="http://www.w3.org/2000/svg">
	<path d="M127.744,15.33c0-5.864-4.768-10.631-10.631-10.631c-5.864,0-10.632,4.767-10.632,10.631c0,3.837,2.057,7.172,5.1,9.047   L91.251,44.595L70.358,23.702c2.5-1.943,4.146-4.957,4.146-8.372c0-5.864-4.768-10.631-10.632-10.631   c-5.864,0-10.634,4.767-10.634,10.631c0,3.415,1.643,6.418,4.147,8.372l-20.93,20.925l-20.627-20.58   c3.235-1.83,5.442-5.255,5.442-9.223c0-5.864-4.767-10.632-10.631-10.632S0,8.96,0,14.824c0,4.132,2.375,7.667,5.822,9.429v79.091   c0,2.236,1.814,4.05,4.05,4.05h27.304c0.231,0.043,0.475,0.074,0.717,0.074h0.011l79.969-0.063c2.236,0,4.05-1.813,4.05-4.05   V24.759C125.36,23.006,127.744,19.446,127.744,15.33z M117.113,12.799c1.402,0,2.531,1.134,2.531,2.531   c0,1.4-1.129,2.539-2.531,2.539c-1.403,0-2.531-1.139-2.531-2.539C114.582,13.933,115.72,12.799,117.113,12.799z M63.872,12.799   c1.397,0,2.531,1.134,2.531,2.531c0,1.4-1.134,2.539-2.531,2.539s-2.534-1.139-2.534-2.539   C61.337,13.933,62.48,12.799,63.872,12.799z M10.634,12.293c1.403,0,2.531,1.134,2.531,2.531s-1.128,2.531-2.531,2.531   c-1.4,0-2.534-1.134-2.534-2.531S9.234,12.293,10.634,12.293z M113.822,99.305l-75.167,0.068c-0.232-0.048-0.464-0.068-0.702-0.068   H13.922V33.59l19.683,19.627c1.593,1.572,4.153,1.572,5.729-0.01l24.548-24.543l24.517,24.511c1.582,1.582,4.14,1.593,5.731,0.011   l19.707-19.617v65.736H113.822z M121.921,119.502c0,2.235-1.813,4.05-4.05,4.05h-108c-2.236,0-4.05-1.814-4.05-4.05   c0-2.226,1.814-4.05,4.05-4.05h108C120.108,115.452,121.921,117.276,121.921,119.502z" fill="#f7ff07" data-original="#000000" style="" class=""/>
</g>
<g xmlns="http://www.w3.org/2000/svg">
</g>
<g xmlns="http://www.w3.org/2000/svg">
</g>
<g xmlns="http://www.w3.org/2000/svg">
</g>
<g xmlns="http://www.w3.org/2000/svg">
</g>
<g xmlns="http://www.w3.org/2000/svg">
</g>
<g xmlns="http://www.w3.org/2000/svg">
</g>
<g xmlns="http://www.w3.org/2000/svg">
</g>
<g xmlns="http://www.w3.org/2000/svg">
</g>
<g xmlns="http://www.w3.org/2000/svg">
</g>
<g xmlns="http://www.w3.org/2000/svg">
</g>
<g xmlns="http://www.w3.org/2000/svg">
</g>
<g xmlns="http://www.w3.org/2000/svg">
</g>
<g xmlns="http://www.w3.org/2000/svg">
</g>
<g xmlns="http://www.w3.org/2000/svg">
</g>
<g xmlns="http://www.w3.org/2000/svg">
</g>
</g></svg>
